<?xml version="1.0" standalone="no"?>
<!DOCTYPE svg PUBLIC "-//W3C//DTD SVG 20010904//EN"
 "http://www.w3.org/TR/2001/REC-SVG-20010904/DTD/svg10.dtd">
<svg version="1.0" xmlns="http://www.w3.org/2000/svg"
 width="1024.000000pt" height="1024.000000pt" viewBox="0 0 1024.000000 1024.000000"
 preserveAspectRatio="xMidYMid meet">
<metadata>
Created by potrace 1.14, written by Peter Selinger 2001-2017
</metadata>
<g transform="translate(0.000000,1024.000000) scale(0.100000,-0.100000)"
fill="#000000" stroke="none">
<path d="M1309 10236 c-2 -2 -29 -7 -59 -10 -64 -7 -71 -8 -171 -35 -404 -108
-737 -379 -924 -748 -42 -84 -108 -265 -119 -328 -3 -16 -8 -41 -11 -55 -3
-14 -9 -50 -13 -80 -9 -74 -9 -7637 0 -7720 10 -85 40 -206 74 -300 145 -405
468 -729 871 -873 99 -36 172 -54 293 -75 60 -10 7670 -9 7740 1 151 21 309
72 455 145 403 201 687 582 772 1032 17 90 18 284 18 3920 0 2104 -4 3850 -8
3880 -66 467 -365 884 -782 1092 -127 64 -265 112 -385 133 -19 4 -46 9 -60
13 -27 6 -7684 14 -7691 8z m3441 -2742 l0 -2004 -2004 0 -2004 0 1 1687 c0
1577 1 1692 17 1767 63 287 309 512 600 549 14 2 782 3 1708 4 l1682 1 0
-2004z m4179 1990 c265 -56 461 -236 544 -502 20 -67 21 -71 23 -1779 l2
-1713 -2004 0 -2004 0 0 1998 c0 1099 3 2001 6 2004 3 3 762 6 1686 6 1387 0
1693 -3 1747 -14z m-4179 -6738 l0 -2004 -1691 0 c-1417 0 -1701 3 -1753 14
-237 55 -426 212 -510 424 -56 142 -53 49 -53 1878 l-1 1692 2004 0 2004 0 0
-2004z m4748 327 c0 -1400 -2 -1691 -14 -1754 -46 -246 -213 -446 -444 -532
-125 -46 -66 -44 -1858 -45 l-1692 0 0 2004 0 2004 2004 0 2003 0 1 -1677z"/>
<path d="M2649 8857 c-89 -25 -167 -83 -216 -161 -54 -85 -56 -96 -58 -461 -2
-187 -3 -347 -4 -355 -1 -13 -48 -15 -354 -16 -397 -1 -405 -2 -506 -80 -202
-158 -181 -478 42 -608 81 -48 122 -52 482 -52 184 1 335 -1 336 -4 1 -3 2
-158 3 -345 2 -284 5 -349 19 -396 35 -119 139 -218 257 -246 171 -40 330 25
414 170 49 85 52 117 52 479 -1 219 3 338 9 339 6 0 165 2 355 3 324 2 348 4
398 24 161 63 252 207 239 377 -10 149 -115 280 -256 322 -47 14 -108 17 -393
18 -185 0 -340 4 -344 8 -5 4 -9 162 -9 350 -1 299 -3 348 -18 393 -50 145
-180 243 -331 251 -39 1 -92 -3 -117 -10z"/>
<path d="M6403 7853 c-128 -30 -229 -125 -270 -257 -6 -22 -11 -76 -9 -120 2
-66 8 -92 31 -140 52 -103 155 -185 260 -203 28 -5 521 -9 1105 -8 968 2 1059
3 1100 19 100 38 165 97 213 196 29 58 32 74 32 155 0 82 -3 97 -33 158 -49
98 -124 164 -222 194 -50 15 -151 17 -1102 18 -826 0 -1060 -2 -1105 -12z"/>
<path d="M1944 3814 c-66 -17 -115 -44 -168 -94 -36 -34 -86 -112 -92 -145 -1
-5 -7 -29 -12 -52 -10 -42 -9 -86 3 -152 16 -84 53 -132 301 -381 l244 -245
-239 -239 c-155 -155 -249 -257 -267 -289 -80 -147 -60 -315 51 -433 115 -122
286 -152 444 -78 20 9 146 126 286 265 l251 248 229 -230 c127 -126 253 -245
280 -263 95 -63 228 -78 330 -38 226 89 311 361 175 556 -16 23 -132 144 -259
271 l-230 229 247 251 c256 259 283 294 301 389 41 221 -118 427 -342 441 -30
2 -74 -1 -97 -6 -98 -22 -128 -46 -385 -301 l-251 -248 -229 231 c-127 127
-249 244 -272 260 -84 59 -199 79 -299 53z"/>
<path d="M7384 4129 c-266 -84 -346 -418 -148 -616 42 -42 124 -88 176 -99 49
-10 155 -4 198 11 125 44 216 144 245 270 63 276 -200 519 -471 434z"/>
<path d="M6420 3110 c-19 -3 -60 -18 -90 -31 -225 -104 -281 -415 -106 -590
52 -52 108 -85 173 -101 41 -11 266 -13 1115 -12 l1063 1 57 22 c80 31 159
106 200 189 30 60 33 75 33 157 0 81 -3 97 -32 155 -37 76 -52 94 -115 142
-100 77 -27 72 -1208 73 -580 0 -1071 -2 -1090 -5z"/>
<path d="M7415 2075 c-116 -26 -204 -99 -258 -213 -26 -56 -30 -76 -30 -146 2
-281 280 -452 538 -331 54 26 139 114 164 170 51 116 47 232 -14 343 -76 139
-242 213 -400 177z"/>
</g>
</svg>
